<svg width="400" height="250" viewBox="0 0 400 250" xmlns="http://www.w3.org/2000/svg">
  <defs>
    <linearGradient id="bg" x1="0%" y1="0%" x2="100%" y2="100%">
      <stop offset="0%" style="stop-color:#A8D5E3;stop-opacity:1" />
      <stop offset="100%" style="stop-color:#E8F4F8;stop-opacity:1" />
    </linearGradient>
  </defs>
  
  <!-- Background -->
  <rect width="400" height="250" fill="url(#bg)"/>
  
  <!-- Dashboard mockup -->
  <rect x="20" y="20" width="360" height="40" fill="#FFFFFF" rx="5"/>
  <rect x="30" y="30" width="80" height="20" fill="#FF78AC" rx="3"/>
  <rect x="120" y="30" width="60" height="20" fill="#333333" rx="3"/>
  
  <!-- Chart area -->
  <rect x="20" y="80" width="170" height="120" fill="#FFFFFF" rx="8"/>
  <polyline points="30,180 50,160 70,140 90,120 110,100 130,90 150,85 170,80" 
            fill="none" stroke="#FF78AC" stroke-width="3"/>
  
  <!-- Stats cards -->
  <rect x="210" y="80" width="80" height="50" fill="#FFFFFF" rx="5"/>
  <rect x="300" y="80" width="80" height="50" fill="#FFFFFF" rx="5"/>
  <rect x="210" y="140" width="80" height="50" fill="#FFFFFF" rx="5"/>
  <rect x="300" y="140" width="80" height="50" fill="#FFFFFF" rx="5"/>
  
  <!-- Icon -->
  <circle cx="200" cy="125" r="25" fill="#A8D5E3" opacity="0.7"/>
  <path d="M190 125 L200 115 L210 125 L200 135 Z" fill="#333333"/>
</svg>